<mxfile host="Electron" modified="2024-04-06T10:03:32.950Z" agent="Mozilla/5.0 (X11; Linux x86_64) AppleWebKit/537.36 (KHTML, like Gecko) draw.io/24.1.0 Chrome/120.0.6099.109 Electron/28.1.0 Safari/537.36" etag="rAOwPL3OsqAyUE7L95Ft" version="24.1.0" type="device">
  <diagram name="Página-1" id="rfetqxiqBMd8Q8Y2YYB9">
    <mxGraphModel dx="810" dy="454" grid="1" gridSize="10" guides="1" tooltips="1" connect="1" arrows="1" fold="1" page="1" pageScale="1" pageWidth="827" pageHeight="1169" math="0" shadow="0">
      <root>
        <mxCell id="0" />
        <mxCell id="1" parent="0" />
        <mxCell id="9T9hjWt0n19a83YmLsme-16" style="edgeStyle=orthogonalEdgeStyle;rounded=0;orthogonalLoop=1;jettySize=auto;html=1;exitX=0.5;exitY=1;exitDx=0;exitDy=0;entryX=0.5;entryY=0;entryDx=0;entryDy=0;" edge="1" parent="1" source="vdmtAvCkOmekdCAwQHOg-1" target="9T9hjWt0n19a83YmLsme-15">
          <mxGeometry relative="1" as="geometry" />
        </mxCell>
        <mxCell id="vdmtAvCkOmekdCAwQHOg-1" value="Esperar por WAITING desde RouteProtocol" style="rounded=0;whiteSpace=wrap;html=1;fillColor=#dae8fc;strokeColor=none;" parent="1" vertex="1">
          <mxGeometry x="120" y="130" width="130" height="50" as="geometry" />
        </mxCell>
        <mxCell id="9T9hjWt0n19a83YmLsme-5" style="edgeStyle=orthogonalEdgeStyle;rounded=0;orthogonalLoop=1;jettySize=auto;html=1;exitX=0.5;exitY=1;exitDx=0;exitDy=0;entryX=0.5;entryY=0;entryDx=0;entryDy=0;" edge="1" parent="1" source="9T9hjWt0n19a83YmLsme-1" target="9T9hjWt0n19a83YmLsme-2">
          <mxGeometry relative="1" as="geometry" />
        </mxCell>
        <mxCell id="9T9hjWt0n19a83YmLsme-1" value="Realizar medición" style="rounded=0;whiteSpace=wrap;html=1;fillColor=#dae8fc;strokeColor=none;" vertex="1" parent="1">
          <mxGeometry x="120" y="274" width="130" height="50" as="geometry" />
        </mxCell>
        <mxCell id="9T9hjWt0n19a83YmLsme-3" style="edgeStyle=orthogonalEdgeStyle;rounded=0;orthogonalLoop=1;jettySize=auto;html=1;exitX=0.5;exitY=1;exitDx=0;exitDy=0;entryX=0.5;entryY=0;entryDx=0;entryDy=0;" edge="1" parent="1" source="9T9hjWt0n19a83YmLsme-2" target="vdmtAvCkOmekdCAwQHOg-1">
          <mxGeometry relative="1" as="geometry">
            <Array as="points">
              <mxPoint x="185" y="414" />
              <mxPoint x="100" y="414" />
              <mxPoint x="100" y="110" />
              <mxPoint x="185" y="110" />
            </Array>
          </mxGeometry>
        </mxCell>
        <mxCell id="9T9hjWt0n19a83YmLsme-2" value="Enviar correcciones hacia adelante" style="rounded=0;whiteSpace=wrap;html=1;fillColor=#dae8fc;strokeColor=none;" vertex="1" parent="1">
          <mxGeometry x="120" y="344" width="130" height="50" as="geometry" />
        </mxCell>
        <mxCell id="9T9hjWt0n19a83YmLsme-20" style="edgeStyle=orthogonalEdgeStyle;rounded=0;orthogonalLoop=1;jettySize=auto;html=1;exitX=0.5;exitY=1;exitDx=0;exitDy=0;entryX=0.5;entryY=0;entryDx=0;entryDy=0;" edge="1" parent="1" source="9T9hjWt0n19a83YmLsme-6" target="9T9hjWt0n19a83YmLsme-7">
          <mxGeometry relative="1" as="geometry" />
        </mxCell>
        <mxCell id="9T9hjWt0n19a83YmLsme-6" value="Esperar por correcciones" style="rounded=0;whiteSpace=wrap;html=1;fillColor=#dae8fc;strokeColor=none;" vertex="1" parent="1">
          <mxGeometry x="400" y="131" width="130" height="50" as="geometry" />
        </mxCell>
        <mxCell id="9T9hjWt0n19a83YmLsme-21" style="edgeStyle=orthogonalEdgeStyle;rounded=0;orthogonalLoop=1;jettySize=auto;html=1;exitX=0.5;exitY=1;exitDx=0;exitDy=0;entryX=0.5;entryY=0;entryDx=0;entryDy=0;" edge="1" parent="1" source="9T9hjWt0n19a83YmLsme-7" target="9T9hjWt0n19a83YmLsme-8">
          <mxGeometry relative="1" as="geometry" />
        </mxCell>
        <mxCell id="9T9hjWt0n19a83YmLsme-7" value="Aplicar correcciones" style="rounded=0;whiteSpace=wrap;html=1;fillColor=#dae8fc;strokeColor=none;" vertex="1" parent="1">
          <mxGeometry x="400" y="201" width="130" height="50" as="geometry" />
        </mxCell>
        <mxCell id="9T9hjWt0n19a83YmLsme-9" style="edgeStyle=orthogonalEdgeStyle;rounded=0;orthogonalLoop=1;jettySize=auto;html=1;exitX=0.5;exitY=1;exitDx=0;exitDy=0;entryX=0.5;entryY=0;entryDx=0;entryDy=0;" edge="1" parent="1" source="9T9hjWt0n19a83YmLsme-8" target="9T9hjWt0n19a83YmLsme-6">
          <mxGeometry relative="1" as="geometry">
            <Array as="points">
              <mxPoint x="465" y="341" />
              <mxPoint x="550" y="341" />
              <mxPoint x="550" y="111" />
              <mxPoint x="465" y="111" />
            </Array>
          </mxGeometry>
        </mxCell>
        <mxCell id="9T9hjWt0n19a83YmLsme-8" value="Enviar señal SUCCESS a RouteProtocol" style="rounded=0;whiteSpace=wrap;html=1;fillColor=#dae8fc;strokeColor=none;" vertex="1" parent="1">
          <mxGeometry x="400" y="271" width="130" height="50" as="geometry" />
        </mxCell>
        <mxCell id="9T9hjWt0n19a83YmLsme-12" value="" style="endArrow=none;dashed=1;html=1;rounded=0;" edge="1" parent="1">
          <mxGeometry width="50" height="50" relative="1" as="geometry">
            <mxPoint x="320" y="424" as="sourcePoint" />
            <mxPoint x="320" y="110" as="targetPoint" />
          </mxGeometry>
        </mxCell>
        <mxCell id="9T9hjWt0n19a83YmLsme-17" style="edgeStyle=orthogonalEdgeStyle;rounded=0;orthogonalLoop=1;jettySize=auto;html=1;exitX=0.5;exitY=1;exitDx=0;exitDy=0;" edge="1" parent="1" source="9T9hjWt0n19a83YmLsme-15">
          <mxGeometry relative="1" as="geometry">
            <mxPoint x="185" y="270" as="targetPoint" />
          </mxGeometry>
        </mxCell>
        <mxCell id="9T9hjWt0n19a83YmLsme-15" value="Guardar en memoria estado a teleportar" style="rounded=0;whiteSpace=wrap;html=1;fillColor=#dae8fc;strokeColor=none;" vertex="1" parent="1">
          <mxGeometry x="120" y="204" width="130" height="50" as="geometry" />
        </mxCell>
        <mxCell id="9T9hjWt0n19a83YmLsme-18" value="Sender role" style="text;html=1;align=center;verticalAlign=middle;whiteSpace=wrap;rounded=0;" vertex="1" parent="1">
          <mxGeometry x="155" y="60" width="60" height="30" as="geometry" />
        </mxCell>
        <mxCell id="9T9hjWt0n19a83YmLsme-19" value="Receiver role" style="text;html=1;align=center;verticalAlign=middle;whiteSpace=wrap;rounded=0;" vertex="1" parent="1">
          <mxGeometry x="435" y="60" width="60" height="30" as="geometry" />
        </mxCell>
      </root>
    </mxGraphModel>
  </diagram>
</mxfile>
